# xmcd CD database file generated by OrangeCD 6.0
#
# Track frame offsets:
#	150
#	33750
#	102573
#	123938
#	150410
#	166520
#	181995
#	235028
#	291398
#
# Disc length: 4340 seconds
#
# Revision: 1
# Processed by: cddbd v1.5.2PL0 Copyright (c) Steve Scherf et al.
# Submitted via: OrangeCD 6.0
#
DISCID=6710f209
DTITLE=Stevie Ray Vaughan - Blues for Japan
DYEAR=1900
DGENRE=Blues
TTITLE0=Scuttle Buttin
TTITLE1=Woodoo Chile
TTITLE2=Cold Shot
TTITLE3=Couldn't Stay the Weather
TTITLE4=Ma ry Had a Little Lamb
TTITLE5=Love Struck Baby
TTITLE6=Texas Flood
TTITLE7=Lenny
TTITLE8=Testify
EXTD=Bootleg
EXTT0=
EXTT1=
EXTT2=
EXTT3=
EXTT4=
EXTT5=
EXTT6=
EXTT7=
EXTT8=
PLAYORDER=
